<?xml version="1.0" encoding="utf-8"?>
<!-- Generator: Adobe Illustrator 18.1.1, SVG Export Plug-In . SVG Version: 6.00 Build 0)  -->
<!DOCTYPE svg PUBLIC "-//W3C//DTD SVG 1.1//EN" "http://www.w3.org/Graphics/SVG/1.1/DTD/svg11.dtd">
<svg version="1.1" id="Layer_1" xmlns="http://www.w3.org/2000/svg" xmlns:xlink="http://www.w3.org/1999/xlink" x="0px" y="0px"
	 viewBox="0 0 14.1 14.1" enable-background="new 0 0 14.1 14.1" xml:space="preserve">
<g opacity="0.5">
	<g>
		<g>
			<path fill="#3A3F3A" d="M7.7,3.6C7.7,4,7.4,4.3,7,4.3C6.7,4.3,6.4,4,6.4,3.6C6.4,3.3,6.7,3,7.1,3C7.4,3,7.7,3.3,7.7,3.6z
				 M6.5,10.8V5.2h1v5.6H6.5z"/>
		</g>
		<g>
			<path fill="#3A3F3A" d="M7.1,14.1C3.2,14.1,0,10.9,0,7.1S3.2,0,7.1,0s7.1,3.2,7.1,7.1S10.9,14.1,7.1,14.1z M7.1,1
				C3.7,1,1,3.7,1,7.1s2.7,6.1,6.1,6.1s6.1-2.7,6.1-6.1S10.4,1,7.1,1z"/>
		</g>
	</g>
</g>
</svg>
