<?xml version="1.0" encoding="utf-8"?>
<!-- Generator: Adobe Illustrator 18.1.1, SVG Export Plug-In . SVG Version: 6.00 Build 0)  -->
<!DOCTYPE svg PUBLIC "-//W3C//DTD SVG 1.1//EN" "http://www.w3.org/Graphics/SVG/1.1/DTD/svg11.dtd">
<svg version="1.1" id="Layer_1" xmlns="http://www.w3.org/2000/svg" xmlns:xlink="http://www.w3.org/1999/xlink" x="0px" y="0px"
	 viewBox="0 0 13.4 53.7" enable-background="new 0 0 13.4 53.7" xml:space="preserve">
<g>
	<g>
		<path fill="#953522" d="M6.7,0L6.7,0c0.6,0,1.3,0.1,2,0.3c1.8,0.5,3.2,1.7,4.1,3.4C13.6,5.4,13.6,7,13,8.7
			c-0.5,1.2-1.1,2.4-1.9,3.4C9.9,14,8,15.6,7.4,17.7S7.1,47.8,7.1,47.8H6.4c0,0,0.3-28-0.4-30.1S3.5,14,2.3,12.1
			C1.5,11,0.9,9.9,0.4,8.7C-0.2,7-0.1,5.4,0.6,3.8C1.5,2,2.9,0.9,4.7,0.3C5.4,0.1,6.1,0,6.7,0L6.7,0L6.7,0z"/>
		<rect x="6" y="13.2" fill="#953522" width="1.4" height="40.5"/>
	</g>
</g>
</svg>
