<svg version="1.1" id="Layer_1" xmlns="http://www.w3.org/2000/svg" xmlns:xlink="http://www.w3.org/1999/xlink" x="0px" y="0px"
	 viewBox="0 0 324.9 47.7" enable-background="new 0 0 324.9 47.7" xml:space="preserve">
<g>
	<g opacity="0.68">
		<path fill="#91A3A0" d="M13.1,32.7H0.7v-1.5c0.6-0.3,1.2-0.5,1.8-0.7c0.6-0.2,1.2-0.4,1.9-0.5V13.4l0.1-2.1
			c-0.7,0.2-1.4,0.4-2.1,0.4c-0.7,0.1-1.5,0.1-2.2,0.1L0,10.5c1.3-0.3,2.7-0.8,4.2-1.4c1.5-0.6,2.9-1.2,4.2-2h1.2V30
			c0.6,0.1,1.2,0.3,1.8,0.5c0.6,0.2,1.2,0.4,1.8,0.7V32.7z"/>
		<path fill="#91A3A0" d="M15.1,27.1c0-1.7,0.5-3.1,1.6-4.2c1.1-1.1,2.5-2,4.2-2.5c-1.4-0.8-2.6-1.8-3.5-2.9
			c-0.9-1.1-1.3-2.4-1.3-3.9c0-0.9,0.2-1.8,0.6-2.6c0.4-0.8,0.9-1.5,1.6-2c0.7-0.6,1.5-1,2.5-1.4c1-0.3,2.1-0.5,3.4-0.5
			c1.2,0,2.2,0.1,3.1,0.4c0.9,0.3,1.8,0.7,2.4,1.2c0.7,0.5,1.2,1.1,1.5,1.8c0.4,0.7,0.5,1.5,0.5,2.4c0,1.4-0.5,2.7-1.4,3.7
			c-1,1.1-2.2,1.8-3.6,2.3c1,0.6,1.9,1.1,2.7,1.7c0.8,0.6,1.4,1.1,1.9,1.7c0.5,0.6,0.9,1.2,1.1,1.9c0.3,0.7,0.4,1.4,0.4,2.2
			c0,0.9-0.2,1.8-0.6,2.6s-1,1.5-1.7,2.1c-0.8,0.6-1.7,1.1-2.8,1.4c-1.1,0.3-2.4,0.5-3.9,0.5c-1.3,0-2.6-0.2-3.7-0.5
			c-1.1-0.3-2-0.7-2.8-1.3c-0.8-0.5-1.3-1.2-1.7-1.9C15.3,28.7,15.1,27.9,15.1,27.1z M27.7,27.5c0-0.8-0.1-1.5-0.4-2.1
			c-0.3-0.6-0.7-1.1-1.2-1.6c-0.5-0.5-1.1-0.9-1.7-1.3s-1.3-0.8-2-1.2c-0.8,0.6-1.4,1.4-1.7,2.3c-0.3,0.9-0.5,1.8-0.5,2.6
			c0,0.6,0.1,1.2,0.2,1.7c0.1,0.6,0.4,1.1,0.7,1.5c0.3,0.4,0.7,0.8,1.2,1.1c0.5,0.3,1.1,0.4,1.9,0.4c0.6,0,1.1-0.1,1.6-0.3
			s0.8-0.5,1.1-0.8c0.3-0.3,0.5-0.7,0.7-1.1C27.6,28.4,27.7,27.9,27.7,27.5z M21,12.8c0,1.2,0.4,2.2,1.2,3c0.8,0.9,1.8,1.6,3.1,2.3
			c0.7-0.6,1.1-1.3,1.4-2.1s0.4-1.6,0.4-2.6c0-1.4-0.3-2.4-0.8-3.1s-1.3-1-2.2-1c-1.1,0-1.9,0.3-2.4,1C21.3,11,21,11.8,21,12.8z"/>
		<path fill="#91A3A0" d="M48.8,32.7H36.3v-1.5c0.6-0.3,1.2-0.5,1.8-0.7c0.6-0.2,1.2-0.4,1.9-0.5V13.4l0.1-2.1
			c-0.7,0.2-1.4,0.4-2.1,0.4c-0.7,0.1-1.5,0.1-2.2,0.1l-0.2-1.3c1.3-0.3,2.7-0.8,4.2-1.4c1.5-0.6,2.9-1.2,4.2-2h1.2V30
			c0.6,0.1,1.2,0.3,1.8,0.5c0.6,0.2,1.2,0.4,1.8,0.7V32.7z"/>
		<path fill="#91A3A0" d="M52.5,20.1c0-2.2,0.2-4,0.7-5.7c0.5-1.6,1.1-3,1.9-4.1c0.8-1.1,1.8-1.9,3-2.5c1.1-0.6,2.4-0.8,3.7-0.8
			c2.9,0,5.2,1.1,6.8,3.3c1.7,2.2,2.5,5.4,2.5,9.8c0,2.2-0.2,4.1-0.7,5.7c-0.5,1.6-1.1,3-2,4.1c-0.9,1.1-1.9,1.9-3,2.5
			c-1.2,0.6-2.5,0.8-3.9,0.8c-1.5,0-2.8-0.3-3.9-0.9c-1.1-0.6-2.1-1.4-2.9-2.6c-0.8-1.1-1.4-2.5-1.8-4.1S52.5,22.2,52.5,20.1z
			 M57.9,20.1c0,1.7,0.1,3.3,0.2,4.6s0.3,2.5,0.6,3.5s0.7,1.7,1.1,2.2c0.5,0.5,1.1,0.8,1.8,0.8c0.8,0,1.5-0.2,2.1-0.6
			c0.5-0.4,1-1,1.3-1.9c0.3-0.9,0.5-2,0.7-3.4c0.1-1.4,0.2-3.1,0.2-5c0-1.7,0-3.3-0.1-4.6c-0.1-1.4-0.3-2.5-0.6-3.5
			c-0.3-0.9-0.7-1.7-1.2-2.2c-0.5-0.5-1.2-0.8-2.1-0.8c-0.8,0-1.4,0.2-1.9,0.6c-0.5,0.4-0.9,1-1.2,1.9c-0.3,0.9-0.5,2-0.6,3.4
			C57.9,16.5,57.9,18.2,57.9,20.1z"/>
	</g>
	<g opacity="0.68">
		<path fill="#91A3A0" d="M265.5,32.7H253v-1.5c0.6-0.3,1.2-0.5,1.8-0.7c0.6-0.2,1.2-0.4,1.9-0.5V13.4l0.1-2.1
			c-0.7,0.2-1.4,0.4-2.1,0.4c-0.7,0.1-1.5,0.1-2.2,0.1l-0.2-1.3c1.3-0.3,2.7-0.8,4.2-1.4c1.5-0.6,2.9-1.2,4.2-2h1.2V30
			c0.6,0.1,1.2,0.3,1.8,0.5c0.6,0.2,1.2,0.4,1.8,0.7V32.7z"/>
		<path fill="#91A3A0" d="M268.2,27.1c0-1.7,0.5-3.1,1.6-4.2c1.1-1.1,2.5-2,4.2-2.5c-1.4-0.8-2.6-1.8-3.5-2.9
			c-0.9-1.1-1.3-2.4-1.3-3.9c0-0.9,0.2-1.8,0.6-2.6c0.4-0.8,0.9-1.5,1.6-2c0.7-0.6,1.5-1,2.5-1.4c1-0.3,2.1-0.5,3.4-0.5
			c1.2,0,2.2,0.1,3.1,0.4c0.9,0.3,1.8,0.7,2.4,1.2c0.7,0.5,1.2,1.1,1.5,1.8c0.4,0.7,0.5,1.5,0.5,2.4c0,1.4-0.5,2.7-1.4,3.7
			c-1,1.1-2.2,1.8-3.6,2.3c1,0.6,1.9,1.1,2.7,1.7c0.8,0.6,1.4,1.1,1.9,1.7c0.5,0.6,0.9,1.2,1.1,1.9c0.3,0.7,0.4,1.4,0.4,2.2
			c0,0.9-0.2,1.8-0.6,2.6s-1,1.5-1.7,2.1c-0.8,0.6-1.7,1.1-2.8,1.4c-1.1,0.3-2.4,0.5-3.9,0.5c-1.3,0-2.6-0.2-3.7-0.5
			c-1.1-0.3-2-0.7-2.8-1.3c-0.8-0.5-1.3-1.2-1.7-1.9C268.4,28.7,268.2,27.9,268.2,27.1z M280.8,27.5c0-0.8-0.1-1.5-0.4-2.1
			c-0.3-0.6-0.7-1.1-1.2-1.6c-0.5-0.5-1.1-0.9-1.7-1.3s-1.3-0.8-2-1.2c-0.8,0.6-1.4,1.4-1.7,2.3c-0.3,0.9-0.5,1.8-0.5,2.6
			c0,0.6,0.1,1.2,0.2,1.7c0.1,0.6,0.4,1.1,0.7,1.5c0.3,0.4,0.7,0.8,1.2,1.1c0.5,0.3,1.1,0.4,1.9,0.4c0.6,0,1.1-0.1,1.6-0.3
			s0.8-0.5,1.1-0.8c0.3-0.3,0.5-0.7,0.7-1.1C280.7,28.4,280.8,27.9,280.8,27.5z M274.1,12.8c0,1.2,0.4,2.2,1.2,3
			c0.8,0.9,1.8,1.6,3.1,2.3c0.7-0.6,1.1-1.3,1.4-2.1s0.4-1.6,0.4-2.6c0-1.4-0.3-2.4-0.8-3.1s-1.3-1-2.2-1c-1.1,0-1.9,0.3-2.4,1
			C274.3,11,274.1,11.8,274.1,12.8z"/>
		<path fill="#91A3A0" d="M305.8,25c0,1.2-0.2,2.4-0.7,3.4c-0.5,1-1.1,1.9-1.9,2.6c-0.8,0.7-1.7,1.3-2.8,1.6
			c-1.1,0.4-2.2,0.6-3.4,0.6c-1.5,0-2.8-0.2-3.9-0.7c-1.1-0.5-2.1-1.1-2.9-2c-0.8-0.8-1.4-1.8-1.7-3c-0.4-1.2-0.6-2.4-0.6-3.8
			c0-2.3,0.4-4.3,1.2-6.2s1.9-3.5,3.2-5s2.9-2.6,4.7-3.6c1.8-1,3.7-1.7,5.7-2.1l0.5,1.5c-1.3,0.4-2.5,1-3.6,1.7
			c-1.1,0.7-2.1,1.5-2.9,2.5c-0.9,1-1.5,2.1-2.1,3.4c-0.5,1.3-0.9,2.6-1,4.2c0.2-0.3,0.4-0.6,0.7-0.9c0.3-0.3,0.7-0.6,1.1-0.8
			s0.9-0.5,1.5-0.6c0.6-0.2,1.2-0.2,1.9-0.2c1,0,1.9,0.2,2.8,0.5c0.9,0.3,1.6,0.8,2.2,1.4c0.6,0.6,1.1,1.4,1.5,2.3
			C305.6,22.7,305.8,23.8,305.8,25z M300.4,25.4c0-3.6-1.2-5.3-3.6-5.3c-0.8,0-1.5,0.2-2.1,0.6c-0.6,0.4-1,0.9-1.3,1.5
			c-0.1,0.3-0.1,0.7-0.2,1.2c0,0.4-0.1,0.9-0.1,1.3c0,0.8,0.1,1.6,0.2,2.4c0.1,0.8,0.4,1.4,0.7,2c0.3,0.6,0.7,1.1,1.2,1.4
			c0.5,0.4,1.1,0.5,1.8,0.5c0.6,0,1.1-0.1,1.5-0.4c0.4-0.3,0.7-0.7,1-1.2c0.3-0.5,0.4-1.1,0.6-1.8C300.4,26.9,300.4,26.2,300.4,25.4
			z"/>
		<path fill="#91A3A0" d="M307,20.1c0-2.2,0.2-4,0.7-5.7c0.5-1.6,1.1-3,1.9-4.1c0.8-1.1,1.8-1.9,3-2.5c1.1-0.6,2.4-0.8,3.7-0.8
			c2.9,0,5.2,1.1,6.8,3.3c1.7,2.2,2.5,5.4,2.5,9.8c0,2.2-0.2,4.1-0.7,5.7c-0.5,1.6-1.1,3-2,4.1c-0.9,1.1-1.9,1.9-3,2.5
			c-1.2,0.6-2.5,0.8-3.9,0.8c-1.5,0-2.8-0.3-3.9-0.9c-1.1-0.6-2.1-1.4-2.9-2.6c-0.8-1.1-1.4-2.5-1.8-4.1S307,22.2,307,20.1z
			 M312.4,20.1c0,1.7,0.1,3.3,0.2,4.6s0.3,2.5,0.6,3.5s0.7,1.7,1.1,2.2c0.5,0.5,1.1,0.8,1.8,0.8c0.8,0,1.5-0.2,2.1-0.6
			c0.5-0.4,1-1,1.3-1.9c0.3-0.9,0.5-2,0.7-3.4c0.1-1.4,0.2-3.1,0.2-5c0-1.7,0-3.3-0.1-4.6c-0.1-1.4-0.3-2.5-0.6-3.5
			c-0.3-0.9-0.7-1.7-1.2-2.2c-0.5-0.5-1.2-0.8-2.1-0.8c-0.8,0-1.4,0.2-1.9,0.6c-0.5,0.4-0.9,1-1.2,1.9c-0.3,0.9-0.5,2-0.6,3.4
			C312.4,16.5,312.4,18.2,312.4,20.1z"/>
	</g>
	<g opacity="0.5">
		<path fill="#AEBAAC" d="M168.2,0l3.4,1.4L151,47.7l-3.3-1.5L168.2,0z"/>
	</g>
	<g>
		<g>
			<path fill="#86412B" d="M48.4,10.2c0.3-0.2,0.5-0.3,0.8-0.4V9c0.1-0.1,0.2-0.1,0.3-0.2c0.1-0.1,0.2-0.1,0.4-0.2h0.3v1.3h1.5v0.5
				h-1.5v3c0,0.4,0.1,0.7,0.2,0.9c0.1,0.2,0.3,0.3,0.6,0.3c0.1,0,0.3,0,0.5,0c0.2,0,0.3,0,0.5-0.1l0.1,0.2c-0.1,0.1-0.1,0.1-0.2,0.2
				s-0.2,0.1-0.3,0.2s-0.3,0.1-0.4,0.2c-0.2,0-0.3,0.1-0.5,0.1c-0.4,0-0.7-0.1-0.9-0.3c-0.2-0.2-0.3-0.6-0.3-1.1v-3.2h-0.8V10.2z"/>
			<path fill="#86412B" d="M57.9,15.1h-2.2v-0.3c0.2-0.1,0.4-0.2,0.6-0.2v-2.4c0-0.5-0.1-1-0.2-1.3c-0.1-0.3-0.4-0.5-0.8-0.5
				c-0.2,0-0.3,0-0.5,0.1c-0.1,0.1-0.3,0.1-0.4,0.3c-0.1,0.1-0.2,0.2-0.3,0.4c-0.1,0.1-0.1,0.3-0.2,0.4v3c0.1,0,0.2,0.1,0.3,0.1
				s0.2,0.1,0.3,0.2v0.3h-2.2v-0.3c0.2-0.1,0.4-0.2,0.7-0.2V8.1L52.2,8V7.7c0.2-0.1,0.4-0.2,0.7-0.2c0.3-0.1,0.5-0.1,0.8-0.2h0.3V11
				h0c0.1-0.3,0.3-0.6,0.6-0.8c0.3-0.2,0.6-0.3,1-0.3c0.3,0,0.5,0,0.7,0.1c0.2,0.1,0.4,0.2,0.5,0.3c0.1,0.2,0.3,0.4,0.3,0.7
				c0.1,0.3,0.1,0.6,0.1,1v2.6c0.1,0,0.2,0.1,0.3,0.1c0.1,0,0.2,0.1,0.3,0.2V15.1z"/>
			<path fill="#86412B" d="M62.6,14.3c-0.1,0.1-0.1,0.2-0.3,0.3c-0.1,0.1-0.2,0.2-0.4,0.3c-0.2,0.1-0.3,0.1-0.5,0.2
				c-0.2,0-0.4,0.1-0.5,0.1c-0.4,0-0.8-0.1-1.1-0.2c-0.3-0.1-0.6-0.3-0.8-0.5c-0.2-0.2-0.4-0.5-0.5-0.8c-0.1-0.3-0.2-0.7-0.2-1.1
				c0-0.9,0.2-1.5,0.6-2c0.4-0.5,1-0.7,1.7-0.7c0.2,0,0.5,0,0.7,0.1c0.2,0.1,0.4,0.2,0.6,0.3c0.2,0.2,0.3,0.4,0.4,0.6
				c0.1,0.2,0.2,0.6,0.2,0.9c0,0.1,0,0.2,0,0.4c0,0.1,0,0.2-0.1,0.4h-3.2c0,0.3,0,0.6,0.1,0.8c0.1,0.2,0.2,0.5,0.3,0.7
				c0.1,0.2,0.3,0.3,0.5,0.4c0.2,0.1,0.5,0.2,0.8,0.2c0.2,0,0.5,0,0.7-0.1c0.2-0.1,0.4-0.2,0.6-0.3L62.6,14.3z M60.8,10.3
				c-0.4,0-0.7,0.1-0.9,0.4c-0.2,0.3-0.3,0.7-0.4,1.4h2.3c0-0.1,0-0.1,0-0.2c0-0.1,0-0.1,0-0.2c0-0.4-0.1-0.8-0.2-1
				C61.4,10.4,61.1,10.3,60.8,10.3z"/>
		</g>
	</g>
	<g>
		<g>
			<path fill="#86412B" d="M118.3,45.7H116v-0.3c0.1-0.1,0.2-0.1,0.3-0.1c0.1,0,0.2-0.1,0.4-0.1v-4l-0.7-0.1v-0.3
				c0.2-0.1,0.4-0.2,0.6-0.2c0.2-0.1,0.5-0.1,0.7-0.2h0.3v4.7c0.1,0,0.3,0.1,0.4,0.1c0.1,0,0.2,0.1,0.3,0.1V45.7z M116.5,38.9
				c0-0.2,0.1-0.3,0.2-0.4c0.1-0.1,0.3-0.2,0.5-0.2c0.2,0,0.4,0.1,0.5,0.2c0.1,0.1,0.2,0.3,0.2,0.4c0,0.2-0.1,0.3-0.2,0.4
				s-0.3,0.2-0.5,0.2c-0.2,0-0.4-0.1-0.5-0.2C116.6,39.2,116.5,39.1,116.5,38.9z"/>
			<path fill="#86412B" d="M124.6,45.7h-2.2v-0.3c0.2-0.1,0.4-0.2,0.6-0.2v-2.4c0-0.5-0.1-0.9-0.2-1.2c-0.1-0.3-0.4-0.5-0.8-0.5
				c-0.2,0-0.3,0-0.5,0.1c-0.1,0.1-0.3,0.1-0.4,0.3s-0.2,0.2-0.3,0.4c-0.1,0.1-0.1,0.3-0.2,0.4v3c0.2,0,0.4,0.1,0.6,0.2v0.3H119
				v-0.3c0.2-0.1,0.4-0.2,0.7-0.2v-4l-0.7-0.1v-0.3c0.2-0.1,0.4-0.1,0.6-0.2c0.2-0.1,0.5-0.1,0.7-0.2h0.3v1.1h0
				c0.1-0.3,0.4-0.6,0.6-0.8c0.3-0.2,0.6-0.3,1-0.3c0.3,0,0.5,0,0.7,0.1c0.2,0.1,0.4,0.2,0.5,0.3c0.1,0.2,0.3,0.4,0.3,0.7
				c0.1,0.3,0.1,0.6,0.1,1v2.6c0.3,0,0.5,0.1,0.7,0.2V45.7z"/>
			<path fill="#86412B" d="M127.4,40.9c0.3-0.2,0.5-0.3,0.8-0.4v-0.9c0.1-0.1,0.2-0.1,0.3-0.2c0.1-0.1,0.2-0.1,0.4-0.2h0.3v1.3h1.5
				v0.5h-1.5v3c0,0.4,0.1,0.7,0.2,0.9c0.1,0.2,0.3,0.3,0.6,0.3c0.1,0,0.3,0,0.5,0c0.2,0,0.3,0,0.5-0.1l0.1,0.2
				c-0.1,0.1-0.1,0.1-0.2,0.2s-0.2,0.1-0.3,0.2s-0.3,0.1-0.4,0.2c-0.2,0-0.3,0.1-0.5,0.1c-0.4,0-0.7-0.1-0.9-0.3
				c-0.2-0.2-0.3-0.6-0.3-1.1v-3.2h-0.8V40.9z"/>
			<path fill="#86412B" d="M136.9,45.7h-2.2v-0.3c0.2-0.1,0.4-0.2,0.6-0.2v-2.4c0-0.5-0.1-1-0.2-1.3c-0.1-0.3-0.4-0.5-0.8-0.5
				c-0.2,0-0.3,0-0.5,0.1c-0.1,0.1-0.3,0.1-0.4,0.3c-0.1,0.1-0.2,0.2-0.3,0.4c-0.1,0.1-0.1,0.3-0.2,0.4v3c0.1,0,0.2,0.1,0.3,0.1
				s0.2,0.1,0.3,0.2v0.3h-2.2v-0.3c0.2-0.1,0.4-0.2,0.7-0.2v-6.5l-0.8-0.1v-0.3c0.2-0.1,0.4-0.2,0.7-0.2c0.3-0.1,0.5-0.1,0.8-0.2
				h0.3v3.6h0c0.1-0.3,0.3-0.6,0.6-0.8c0.3-0.2,0.6-0.3,1-0.3c0.3,0,0.5,0,0.7,0.1c0.2,0.1,0.4,0.2,0.5,0.3c0.1,0.2,0.3,0.4,0.3,0.7
				c0.1,0.3,0.1,0.6,0.1,1v2.6c0.1,0,0.2,0.1,0.3,0.1c0.1,0,0.2,0.1,0.3,0.2V45.7z"/>
			<path fill="#86412B" d="M141.6,45c-0.1,0.1-0.1,0.2-0.3,0.3c-0.1,0.1-0.2,0.2-0.4,0.3c-0.2,0.1-0.3,0.1-0.5,0.2
				c-0.2,0-0.4,0.1-0.5,0.1c-0.4,0-0.8-0.1-1.1-0.2c-0.3-0.1-0.6-0.3-0.8-0.5c-0.2-0.2-0.4-0.5-0.5-0.8c-0.1-0.3-0.2-0.7-0.2-1.1
				c0-0.9,0.2-1.5,0.6-2c0.4-0.5,1-0.7,1.7-0.7c0.2,0,0.5,0,0.7,0.1c0.2,0.1,0.4,0.2,0.6,0.3c0.2,0.2,0.3,0.4,0.4,0.6
				c0.1,0.2,0.2,0.6,0.2,0.9c0,0.1,0,0.2,0,0.4c0,0.1,0,0.2-0.1,0.4h-3.2c0,0.3,0,0.6,0.1,0.8c0.1,0.2,0.2,0.5,0.3,0.7
				c0.1,0.2,0.3,0.3,0.5,0.4c0.2,0.1,0.5,0.2,0.8,0.2c0.2,0,0.5,0,0.7-0.1c0.2-0.1,0.4-0.2,0.6-0.3L141.6,45z M139.8,40.9
				c-0.4,0-0.7,0.1-0.9,0.4c-0.2,0.3-0.3,0.7-0.4,1.4h2.3c0-0.1,0-0.1,0-0.2c0-0.1,0-0.1,0-0.2c0-0.4-0.1-0.8-0.2-1
				C140.4,41.1,140.1,40.9,139.8,40.9z"/>
			<path fill="#86412B" d="M144.8,38.6h2.6v0.3c-0.1,0.1-0.3,0.1-0.4,0.1c-0.1,0-0.3,0.1-0.4,0.1v4.2c0,0.4,0,0.7,0.1,0.9
				c0.1,0.2,0.2,0.4,0.3,0.6c0.2,0.1,0.3,0.3,0.6,0.3c0.2,0.1,0.5,0.1,0.8,0.1c0.5,0,1-0.1,1.3-0.4c0.3-0.3,0.5-0.8,0.5-1.5v-4.1
				c-0.2-0.1-0.3-0.1-0.4-0.2c-0.1-0.1-0.3-0.1-0.4-0.2v-0.3h2.2v0.3c-0.1,0.1-0.3,0.1-0.4,0.2c-0.1,0.1-0.3,0.1-0.4,0.1v4.1
				c0,0.4-0.1,0.8-0.2,1.1s-0.3,0.6-0.5,0.8c-0.2,0.2-0.5,0.4-0.8,0.5c-0.3,0.1-0.6,0.1-1,0.1c-0.9,0-1.5-0.2-2-0.6s-0.7-1-0.7-1.8
				v-4.4c-0.3,0-0.6-0.1-0.8-0.3V38.6z"/>
			<path fill="#86412B" d="M157.5,45.7h-2.2v-0.3c0.2-0.1,0.4-0.2,0.6-0.2v-2.4c0-0.5-0.1-0.9-0.2-1.2c-0.1-0.3-0.4-0.5-0.8-0.5
				c-0.2,0-0.3,0-0.5,0.1c-0.1,0.1-0.3,0.1-0.4,0.3s-0.2,0.2-0.3,0.4c-0.1,0.1-0.1,0.3-0.2,0.4v3c0.2,0,0.4,0.1,0.6,0.2v0.3h-2.2
				v-0.3c0.2-0.1,0.4-0.2,0.7-0.2v-4l-0.7-0.1v-0.3c0.2-0.1,0.4-0.1,0.6-0.2c0.2-0.1,0.5-0.1,0.7-0.2h0.3v1.1h0
				c0.1-0.3,0.4-0.6,0.6-0.8c0.3-0.2,0.6-0.3,1-0.3c0.3,0,0.5,0,0.7,0.1c0.2,0.1,0.4,0.2,0.5,0.3c0.1,0.2,0.3,0.4,0.3,0.7
				c0.1,0.3,0.1,0.6,0.1,1v2.6c0.3,0,0.5,0.1,0.7,0.2V45.7z"/>
			<path fill="#86412B" d="M160.4,45.7h-2.3v-0.3c0.1-0.1,0.2-0.1,0.3-0.1c0.1,0,0.2-0.1,0.4-0.1v-4l-0.7-0.1v-0.3
				c0.2-0.1,0.4-0.2,0.6-0.2c0.2-0.1,0.5-0.1,0.7-0.2h0.3v4.7c0.1,0,0.3,0.1,0.4,0.1c0.1,0,0.2,0.1,0.3,0.1V45.7z M158.6,38.9
				c0-0.2,0.1-0.3,0.2-0.4c0.1-0.1,0.3-0.2,0.5-0.2c0.2,0,0.4,0.1,0.5,0.2c0.1,0.1,0.2,0.3,0.2,0.4c0,0.2-0.1,0.3-0.2,0.4
				s-0.3,0.2-0.5,0.2c-0.2,0-0.4-0.1-0.5-0.2C158.6,39.2,158.6,39.1,158.6,38.9z"/>
			<path fill="#86412B" d="M160.9,40.9c0.3-0.2,0.5-0.3,0.8-0.4v-0.9c0.1-0.1,0.2-0.1,0.3-0.2c0.1-0.1,0.2-0.1,0.4-0.2h0.3v1.3h1.5
				v0.5h-1.5v3c0,0.4,0.1,0.7,0.2,0.9c0.1,0.2,0.3,0.3,0.6,0.3c0.1,0,0.3,0,0.5,0c0.2,0,0.3,0,0.5-0.1l0.1,0.2
				c-0.1,0.1-0.1,0.1-0.2,0.2s-0.2,0.1-0.3,0.2s-0.3,0.1-0.4,0.2c-0.2,0-0.3,0.1-0.5,0.1c-0.4,0-0.7-0.1-0.9-0.3
				c-0.2-0.2-0.3-0.6-0.3-1.1v-3.2h-0.8V40.9z"/>
			<path fill="#86412B" d="M169.1,45c-0.1,0.1-0.1,0.2-0.3,0.3c-0.1,0.1-0.2,0.2-0.4,0.3c-0.2,0.1-0.3,0.1-0.5,0.2
				c-0.2,0-0.4,0.1-0.5,0.1c-0.4,0-0.8-0.1-1.1-0.2c-0.3-0.1-0.6-0.3-0.8-0.5c-0.2-0.2-0.4-0.5-0.5-0.8c-0.1-0.3-0.2-0.7-0.2-1.1
				c0-0.9,0.2-1.5,0.6-2c0.4-0.5,1-0.7,1.7-0.7c0.2,0,0.5,0,0.7,0.1c0.2,0.1,0.4,0.2,0.6,0.3c0.2,0.2,0.3,0.4,0.4,0.6
				c0.1,0.2,0.2,0.6,0.2,0.9c0,0.1,0,0.2,0,0.4c0,0.1,0,0.2-0.1,0.4H166c0,0.3,0,0.6,0.1,0.8c0.1,0.2,0.2,0.5,0.3,0.7
				c0.1,0.2,0.3,0.3,0.5,0.4c0.2,0.1,0.5,0.2,0.8,0.2c0.2,0,0.5,0,0.7-0.1c0.2-0.1,0.4-0.2,0.6-0.3L169.1,45z M167.2,40.9
				c-0.4,0-0.7,0.1-0.9,0.4c-0.2,0.3-0.3,0.7-0.4,1.4h2.3c0-0.1,0-0.1,0-0.2c0-0.1,0-0.1,0-0.2c0-0.4-0.1-0.8-0.2-1
				C167.9,41.1,167.6,40.9,167.2,40.9z"/>
			<path fill="#86412B" d="M173.5,44.7c0,0.2-0.1,0.3-0.2,0.4c-0.1,0.1-0.2,0.3-0.3,0.4c-0.1,0.1-0.3,0.2-0.4,0.3
				c-0.2,0.1-0.3,0.1-0.5,0.1c-0.7,0-1.2-0.2-1.5-0.6c-0.3-0.4-0.5-1.1-0.5-2c0-0.9,0.2-1.5,0.6-2s1-0.7,1.7-0.7c0.3,0,0.5,0,0.6,0
				s0.3,0.1,0.5,0.1v-1.9l-0.8-0.1v-0.3c0.2-0.1,0.4-0.2,0.7-0.2c0.3-0.1,0.5-0.1,0.8-0.2h0.3v7.1l0.7,0.1v0.2
				c-0.2,0.1-0.4,0.2-0.6,0.2c-0.2,0.1-0.4,0.1-0.6,0.1h-0.3L173.5,44.7L173.5,44.7z M172.4,45.2c0.3,0,0.6-0.1,0.8-0.3
				c0.2-0.2,0.3-0.5,0.4-0.9v-2.9c-0.1-0.1-0.3-0.1-0.4-0.1c-0.2,0-0.4,0-0.6,0c-0.5,0-0.8,0.2-1.1,0.6c-0.2,0.4-0.4,0.9-0.4,1.6
				c0,0.3,0,0.5,0.1,0.8c0,0.2,0.1,0.5,0.2,0.6c0.1,0.2,0.2,0.3,0.4,0.4C171.9,45.2,172.1,45.2,172.4,45.2z"/>
			<path fill="#86412B" d="M179.4,45c0.1,0.1,0.2,0.2,0.3,0.2c0.1,0.1,0.3,0.1,0.6,0.1c0.2,0,0.4,0,0.6-0.1c0.2-0.1,0.4-0.1,0.5-0.3
				c0.1-0.1,0.3-0.2,0.3-0.4c0.1-0.2,0.1-0.3,0.1-0.5c0-0.3-0.1-0.5-0.3-0.7c-0.2-0.2-0.4-0.3-0.6-0.5c-0.2-0.1-0.5-0.3-0.8-0.4
				c-0.3-0.1-0.6-0.3-0.8-0.5c-0.2-0.2-0.5-0.4-0.6-0.7c-0.2-0.3-0.3-0.6-0.3-1c0-0.3,0.1-0.5,0.2-0.8c0.1-0.2,0.2-0.4,0.4-0.6
				c0.2-0.2,0.4-0.3,0.7-0.4c0.3-0.1,0.5-0.1,0.9-0.1c0.4,0,0.8,0,1.1,0.1s0.6,0.1,0.8,0.2c0,0.1,0,0.3,0,0.4s0,0.3-0.1,0.5
				c0,0.2,0,0.3-0.1,0.5c0,0.2-0.1,0.3-0.1,0.4h-0.3l-0.4-1.4c-0.1-0.1-0.3-0.1-0.5-0.1s-0.4,0-0.6,0c-0.4,0-0.6,0.1-0.8,0.3
				c-0.2,0.2-0.3,0.5-0.3,0.8c0,0.3,0.1,0.5,0.3,0.7c0.2,0.2,0.4,0.4,0.6,0.5c0.3,0.1,0.5,0.3,0.8,0.4c0.3,0.1,0.6,0.3,0.8,0.5
				c0.3,0.2,0.5,0.4,0.6,0.7s0.3,0.6,0.3,0.9c0,0.3-0.1,0.6-0.2,0.8c-0.1,0.3-0.3,0.5-0.5,0.6c-0.2,0.2-0.5,0.3-0.8,0.4
				c-0.3,0.1-0.7,0.1-1,0.1c-0.4,0-0.8-0.1-1.2-0.2c-0.3-0.1-0.6-0.2-0.7-0.3c0-0.1,0-0.3,0-0.4c0-0.2,0-0.3,0.1-0.5
				c0-0.2,0-0.3,0.1-0.5c0-0.2,0.1-0.3,0.1-0.4h0.3L179.4,45z"/>
			<path fill="#86412B" d="M183.5,40.9c0.3-0.2,0.5-0.3,0.8-0.4v-0.9c0.1-0.1,0.2-0.1,0.3-0.2c0.1-0.1,0.2-0.1,0.4-0.2h0.3v1.3h1.5
				v0.5h-1.5v3c0,0.4,0.1,0.7,0.2,0.9c0.1,0.2,0.3,0.3,0.6,0.3c0.1,0,0.3,0,0.5,0c0.2,0,0.3,0,0.5-0.1l0.1,0.2
				c-0.1,0.1-0.1,0.1-0.2,0.2s-0.2,0.1-0.3,0.2s-0.3,0.1-0.4,0.2c-0.2,0-0.3,0.1-0.5,0.1c-0.4,0-0.7-0.1-0.9-0.3
				c-0.2-0.2-0.3-0.6-0.3-1.1v-3.2h-0.8V40.9z"/>
			<path fill="#86412B" d="M191.4,44.4c0,0.2,0,0.3,0,0.4c0,0.1,0,0.2,0,0.3l0.7,0.1v0.2c-0.2,0.1-0.4,0.2-0.6,0.2
				c-0.2,0.1-0.4,0.1-0.6,0.2h-0.3c-0.1-0.2-0.1-0.3-0.1-0.5c0-0.2,0-0.4,0-0.6h-0.1c0,0.1-0.1,0.3-0.2,0.4
				c-0.1,0.1-0.2,0.3-0.3,0.4c-0.1,0.1-0.3,0.2-0.4,0.3c-0.2,0.1-0.4,0.1-0.6,0.1c-0.4,0-0.8-0.1-1-0.4c-0.3-0.3-0.4-0.6-0.4-1
				c0-0.3,0.1-0.6,0.2-0.8c0.1-0.2,0.3-0.4,0.6-0.5c0.2-0.1,0.5-0.2,0.9-0.3s0.8-0.1,1.3-0.1c0-0.3,0-0.6,0-0.8c0-0.2,0-0.4-0.1-0.6
				c-0.1-0.2-0.2-0.3-0.3-0.4c-0.1-0.1-0.3-0.1-0.5-0.1c-0.1,0-0.2,0-0.3,0c-0.1,0-0.2,0-0.4,0.1l-0.5,1.2h-0.3
				c-0.1-0.2-0.1-0.4-0.2-0.6c-0.1-0.2-0.1-0.4-0.1-0.6c0.3-0.2,0.5-0.3,0.9-0.4c0.3-0.1,0.7-0.1,1.1-0.1c0.3,0,0.6,0,0.8,0.1
				s0.4,0.2,0.5,0.4c0.1,0.2,0.2,0.3,0.2,0.5c0,0.2,0.1,0.4,0.1,0.6c0,0.4,0,0.8,0,1.2S191.4,44,191.4,44.4z M189.4,45.2
				c0.2,0,0.3,0,0.5-0.1c0.1-0.1,0.2-0.1,0.3-0.2c0.1-0.1,0.2-0.2,0.2-0.3c0.1-0.1,0.1-0.2,0.1-0.3v-1.1c-0.4,0-0.7,0-1,0.1
				c-0.3,0-0.5,0.1-0.6,0.2c-0.1,0.1-0.2,0.2-0.3,0.3c-0.1,0.1-0.1,0.3-0.1,0.5c0,0.3,0.1,0.5,0.2,0.7
				C188.9,45.1,189.1,45.2,189.4,45.2z"/>
			<path fill="#86412B" d="M192.5,40.9c0.3-0.2,0.5-0.3,0.8-0.4v-0.9c0.1-0.1,0.2-0.1,0.3-0.2c0.1-0.1,0.2-0.1,0.4-0.2h0.3v1.3h1.5
				v0.5h-1.5v3c0,0.4,0.1,0.7,0.2,0.9c0.1,0.2,0.3,0.3,0.6,0.3c0.1,0,0.3,0,0.5,0c0.2,0,0.3,0,0.5-0.1l0.1,0.2
				c-0.1,0.1-0.1,0.1-0.2,0.2s-0.2,0.1-0.3,0.2s-0.3,0.1-0.4,0.2c-0.2,0-0.3,0.1-0.5,0.1c-0.4,0-0.7-0.1-0.9-0.3
				c-0.2-0.2-0.3-0.6-0.3-1.1v-3.2h-0.8V40.9z"/>
			<path fill="#86412B" d="M200.7,45c-0.1,0.1-0.1,0.2-0.3,0.3c-0.1,0.1-0.2,0.2-0.4,0.3c-0.2,0.1-0.3,0.1-0.5,0.2
				c-0.2,0-0.4,0.1-0.5,0.1c-0.4,0-0.8-0.1-1.1-0.2c-0.3-0.1-0.6-0.3-0.8-0.5c-0.2-0.2-0.4-0.5-0.5-0.8c-0.1-0.3-0.2-0.7-0.2-1.1
				c0-0.9,0.2-1.5,0.6-2c0.4-0.5,1-0.7,1.7-0.7c0.2,0,0.5,0,0.7,0.1c0.2,0.1,0.4,0.2,0.6,0.3c0.2,0.2,0.3,0.4,0.4,0.6
				c0.1,0.2,0.2,0.6,0.2,0.9c0,0.1,0,0.2,0,0.4c0,0.1,0,0.2-0.1,0.4h-3.2c0,0.3,0,0.6,0.1,0.8c0.1,0.2,0.2,0.5,0.3,0.7
				c0.1,0.2,0.3,0.3,0.5,0.4c0.2,0.1,0.5,0.2,0.8,0.2c0.2,0,0.5,0,0.7-0.1c0.2-0.1,0.4-0.2,0.6-0.3L200.7,45z M198.8,40.9
				c-0.4,0-0.7,0.1-0.9,0.4c-0.2,0.3-0.3,0.7-0.4,1.4h2.3c0-0.1,0-0.1,0-0.2c0-0.1,0-0.1,0-0.2c0-0.4-0.1-0.8-0.2-1
				C199.4,41.1,199.2,40.9,198.8,40.9z"/>
			<path fill="#86412B" d="M204.3,44.6c0-0.2-0.1-0.4-0.2-0.5c-0.1-0.1-0.3-0.3-0.5-0.4c-0.2-0.1-0.4-0.2-0.6-0.3
				c-0.2-0.1-0.4-0.2-0.6-0.4c-0.2-0.1-0.3-0.3-0.5-0.5c-0.1-0.2-0.2-0.4-0.2-0.7c0-0.2,0-0.4,0.1-0.5s0.2-0.3,0.3-0.4
				c0.1-0.1,0.3-0.2,0.5-0.3c0.2-0.1,0.4-0.1,0.6-0.1c0.4,0,0.7,0,0.9,0.1c0.2,0,0.5,0.1,0.7,0.2c0,0.2-0.1,0.4-0.1,0.7
				c0,0.2-0.1,0.4-0.2,0.7h-0.3l-0.4-1c-0.1,0-0.2-0.1-0.3-0.1s-0.2,0-0.3,0c-0.1,0-0.2,0-0.3,0.1s-0.2,0.1-0.2,0.2
				s-0.1,0.1-0.1,0.2c0,0.1-0.1,0.2-0.1,0.3c0,0.2,0.1,0.3,0.2,0.5c0.1,0.1,0.3,0.3,0.5,0.4c0.2,0.1,0.4,0.2,0.6,0.3
				c0.2,0.1,0.4,0.2,0.6,0.4c0.2,0.1,0.3,0.3,0.5,0.5c0.1,0.2,0.2,0.4,0.2,0.7c0,0.2,0,0.4-0.1,0.6c-0.1,0.2-0.2,0.3-0.4,0.5
				c-0.2,0.1-0.4,0.2-0.6,0.3c-0.2,0.1-0.5,0.1-0.7,0.1c-0.3,0-0.6,0-0.8-0.1c-0.2-0.1-0.5-0.1-0.8-0.2c0-0.2,0-0.5,0.1-0.7
				c0-0.2,0.1-0.4,0.2-0.7h0.3l0.5,1.1c0.1,0.1,0.2,0.1,0.3,0.1s0.2,0,0.3,0c0.3,0,0.5-0.1,0.7-0.2C204.2,45,204.3,44.8,204.3,44.6z
				"/>
		</g>
	</g>
	<g>
		<g>
			<path fill="#3A3F3A" d="M66.9,15.7v-2.6c0.4,0,0.7-0.1,0.9-0.2c0.2-0.1,0.3-0.3,0.3-0.6V8.8c0-0.3-0.1-0.5-0.3-0.6
				C67.6,8.1,67.3,8,66.9,8V5.4h9.6v3.9h-2.4c0-0.3,0-0.5,0-0.7c0-0.2-0.1-0.3-0.2-0.4c-0.1-0.1-0.2-0.2-0.3-0.2
				C73.5,8,73.3,8,73.2,8h-1v2h2.2v1.2h-2.2v1.1c0,0.2,0.1,0.4,0.2,0.6c0.1,0.1,0.3,0.2,0.7,0.2h0.7v2.6H66.9z"/>
			<path fill="#3A3F3A" d="M78.1,10.6c0-0.9,0.1-1.7,0.4-2.4c0.3-0.7,0.7-1.2,1.2-1.7c0.5-0.5,1.2-0.8,1.9-1s1.6-0.3,2.5-0.3
				c0.9,0,1.7,0.1,2.5,0.3s1.4,0.6,1.9,1c0.5,0.5,1,1,1.2,1.7c0.3,0.7,0.4,1.5,0.4,2.4c0,0.9-0.1,1.7-0.4,2.4
				c-0.3,0.7-0.7,1.2-1.2,1.7c-0.5,0.5-1.2,0.8-1.9,1C85.8,15.9,85,16,84.1,16c-0.9,0-1.7-0.1-2.5-0.3c-0.7-0.2-1.4-0.6-1.9-1
				c-0.5-0.5-1-1-1.2-1.7C78.2,12.3,78.1,11.5,78.1,10.6z M82.8,10.6c0,0.6,0,1,0.1,1.4c0,0.4,0.1,0.7,0.2,0.9s0.2,0.4,0.4,0.5
				c0.2,0.1,0.4,0.2,0.7,0.2c0.3,0,0.5-0.1,0.7-0.2s0.3-0.3,0.4-0.5s0.2-0.5,0.2-0.9c0-0.4,0.1-0.8,0.1-1.4c0-0.6,0-1-0.1-1.4
				c0-0.4-0.1-0.7-0.2-0.9C85.1,8,85,7.8,84.8,7.7s-0.4-0.2-0.7-0.2c-0.3,0-0.5,0.1-0.7,0.2C83.3,7.8,83.1,8,83,8.2
				c-0.1,0.2-0.2,0.5-0.2,0.9C82.8,9.6,82.8,10,82.8,10.6z"/>
			<path fill="#3A3F3A" d="M91.4,15.7v-2.6c0.4,0,0.7-0.1,0.9-0.2c0.2-0.1,0.3-0.3,0.3-0.6V8.8c0-0.3-0.1-0.5-0.3-0.6
				C92.1,8.1,91.8,8,91.4,8V5.4h7.4c0.7,0,1.3,0.1,1.7,0.2c0.5,0.1,0.8,0.3,1.1,0.6c0.3,0.3,0.5,0.5,0.6,0.9
				c0.1,0.3,0.2,0.7,0.2,1.2c0,0.8-0.2,1.4-0.6,1.9c-0.4,0.5-1,0.7-1.8,0.8V11c0.4,0,0.7,0.1,1,0.2c0.3,0.1,0.5,0.3,0.6,0.5
				c0.2,0.2,0.3,0.4,0.3,0.7c0.1,0.3,0.1,0.6,0.1,0.9v0.4c0,0.1,0,0.2,0.1,0.3s0.2,0.1,0.3,0.1c0.1,0,0.2,0,0.3-0.1s0.1-0.2,0.1-0.3
				v-1.8h0.8v1.8c0,0.3,0,0.6-0.1,0.9c-0.1,0.3-0.3,0.5-0.5,0.7s-0.5,0.4-0.9,0.5c-0.4,0.1-0.8,0.2-1.4,0.2c-0.5,0-1-0.1-1.3-0.2
				c-0.3-0.1-0.6-0.3-0.8-0.5c-0.2-0.2-0.3-0.5-0.4-0.7C98.1,14.3,98,14,98,13.7v-0.5c0-0.4,0-0.7-0.1-0.9c0-0.2-0.1-0.4-0.2-0.5
				c-0.1-0.1-0.2-0.2-0.4-0.3c-0.2,0-0.3-0.1-0.6-0.1h-0.2v1c0,0.2,0.1,0.4,0.2,0.5c0.1,0.1,0.4,0.2,0.7,0.2v2.6H91.4z M96.7,10.2
				h0.6c0.4,0,0.7-0.1,0.8-0.3c0.1-0.2,0.2-0.4,0.2-0.8c0-0.4-0.1-0.7-0.2-0.8C97.9,8.1,97.7,8,97.3,8h-0.6V10.2z"/>
			<path fill="#3A3F3A" d="M109.7,5.2c0.3,0,0.6,0,0.9,0.1c0.3,0.1,0.5,0.1,0.7,0.2c0.2,0.1,0.4,0.2,0.6,0.3
				c0.2,0.1,0.3,0.2,0.4,0.2V5.4h2.3v3.8h-2.4c0-0.3,0-0.6-0.1-0.8c-0.1-0.2-0.2-0.4-0.3-0.5c-0.1-0.1-0.3-0.2-0.4-0.3
				s-0.4-0.1-0.6-0.1c-0.3,0-0.5,0.1-0.7,0.2s-0.4,0.3-0.5,0.5c-0.1,0.2-0.2,0.5-0.3,0.9c-0.1,0.4-0.1,0.9-0.1,1.4
				c0,0.6,0,1,0.1,1.4c0.1,0.4,0.2,0.7,0.3,0.9c0.1,0.2,0.3,0.4,0.5,0.5s0.5,0.2,0.8,0.2c0.2,0,0.4,0,0.6-0.1s0.3-0.2,0.5-0.4
				c0.1-0.2,0.3-0.4,0.3-0.6s0.1-0.5,0.1-0.9h2.4c0,0.6-0.1,1.1-0.3,1.7c-0.2,0.5-0.5,1-0.9,1.4s-0.9,0.7-1.5,0.9
				c-0.6,0.2-1.3,0.3-2.2,0.3c-0.8,0-1.5-0.1-2.1-0.3s-1.3-0.5-1.8-1s-0.9-1-1.2-1.7c-0.3-0.7-0.4-1.5-0.4-2.5s0.1-1.8,0.4-2.5
				c0.3-0.7,0.7-1.2,1.2-1.7c0.5-0.4,1-0.8,1.7-1C108.4,5.3,109.1,5.2,109.7,5.2z"/>
			<path fill="#3A3F3A" d="M122.8,13.1c0.2,0,0.3,0,0.5,0c0.1,0,0.2-0.1,0.3-0.2c0.1-0.1,0.1-0.2,0.2-0.4s0-0.4,0-0.6h2.4v3.8h-9.9
				v-2.6c0.4,0,0.7-0.1,0.9-0.2c0.2-0.1,0.3-0.3,0.3-0.6V8.8c0-0.3-0.1-0.5-0.3-0.6C117,8.1,116.7,8,116.3,8V5.4h9.9v3.8h-2.4
				c0-0.2,0-0.4,0-0.6s-0.1-0.3-0.2-0.4c-0.1-0.1-0.2-0.1-0.3-0.2C123.1,8,123,8,122.8,8h-1.3v1.9h2.2v1.2h-2.2v2H122.8z"/>
			<path fill="#3A3F3A" d="M127.3,15.7v-2.6c0.4,0,0.7-0.1,0.9-0.2c0.2-0.1,0.3-0.3,0.3-0.6V8.8c0-0.3-0.1-0.5-0.3-0.6
				C128,8.1,127.7,8,127.3,8V5.4h7.4c0.7,0,1.3,0.1,1.9,0.3c0.6,0.2,1.2,0.5,1.7,0.9c0.5,0.4,0.9,0.9,1.2,1.6
				c0.3,0.7,0.4,1.5,0.4,2.4s-0.1,1.8-0.4,2.4c-0.3,0.7-0.7,1.2-1.2,1.6c-0.5,0.4-1.1,0.7-1.8,0.9c-0.7,0.2-1.4,0.3-2.1,0.3
				L127.3,15.7z M133.2,13.1c0.3,0,0.5,0,0.7-0.1s0.5-0.2,0.6-0.3c0.2-0.2,0.3-0.4,0.4-0.8s0.2-0.8,0.2-1.3c0-0.6-0.1-1-0.2-1.3
				s-0.3-0.6-0.4-0.8s-0.4-0.3-0.6-0.4c-0.2-0.1-0.5-0.1-0.8-0.1h-0.7v5.1H133.2z"/>
			<path fill="#3A3F3A" d="M156,15.7v-2.6c0.4,0,0.7-0.1,0.8-0.2c0.1-0.1,0.2-0.3,0.2-0.6v-4l-2.4,7.4h-2.7l-2.4-7v3.7
				c0,0.2,0,0.3,0,0.4s0.1,0.2,0.1,0.2c0.1,0.1,0.2,0.1,0.3,0.1c0.1,0,0.3,0,0.5,0v2.6H146v-2.6c0.4,0,0.7-0.1,0.9-0.2
				c0.2-0.1,0.3-0.3,0.3-0.6V8.8c0-0.3-0.1-0.5-0.3-0.6C146.7,8.1,146.4,8,146,8V5.4h6.6l1.6,4.8l1.4-4.8h6.5V8
				c-0.4,0-0.7,0.1-0.9,0.2c-0.2,0.1-0.3,0.3-0.3,0.6v3.5c0,0.3,0.1,0.5,0.3,0.6c0.2,0.1,0.5,0.2,0.9,0.2v2.6H156z"/>
			<path fill="#3A3F3A" d="M163.3,15.7v-2.6c0.4,0,0.7-0.1,0.9-0.2c0.2-0.1,0.3-0.3,0.3-0.6V8.8c0-0.3-0.1-0.5-0.3-0.6
				C164,8.1,163.7,8,163.3,8V5.4h6.4V8c-0.4,0-0.7,0.1-0.9,0.2c-0.2,0.1-0.3,0.3-0.3,0.6v3.5c0,0.3,0.1,0.5,0.3,0.6
				c0.2,0.1,0.5,0.2,0.9,0.2v2.6H163.3z"/>
			<path fill="#3A3F3A" d="M179.5,15.7l-0.2-0.7c-0.3,0.3-0.7,0.5-1.2,0.7c-0.5,0.2-1.1,0.3-1.8,0.3c-0.8,0-1.5-0.1-2.1-0.3
				s-1.3-0.5-1.8-1c-0.5-0.4-0.9-1-1.2-1.7s-0.4-1.5-0.4-2.5s0.2-1.8,0.5-2.5c0.3-0.7,0.7-1.2,1.2-1.7c0.5-0.4,1.1-0.8,1.7-1
				c0.6-0.2,1.3-0.3,2-0.3c0.4,0,0.7,0,1.1,0.1c0.3,0.1,0.6,0.1,0.8,0.2c0.2,0.1,0.4,0.2,0.6,0.3c0.2,0.1,0.3,0.2,0.4,0.2V5.4h2.3
				v3.8h-2.4c0-0.5-0.2-0.9-0.4-1.2c-0.3-0.3-0.7-0.5-1.2-0.5c-0.3,0-0.5,0-0.7,0.1S176.1,8,176,8.2c-0.2,0.2-0.3,0.5-0.4,0.9
				s-0.1,0.9-0.1,1.5c0,0.6,0,1,0.1,1.4c0.1,0.4,0.2,0.7,0.3,0.9s0.3,0.4,0.5,0.5s0.5,0.2,0.7,0.2c0.1,0,0.1,0,0.2,0
				c0.1,0,0.2,0,0.3-0.1c0.1,0,0.2-0.1,0.2-0.1s0.1-0.1,0.1-0.2v-0.4c0-0.2-0.1-0.4-0.2-0.5c-0.1-0.1-0.4-0.2-0.8-0.2V9.8h5.9v2.3
				c-0.4,0-0.7,0.1-0.9,0.2c-0.2,0.1-0.3,0.3-0.3,0.6v2.9H179.5z"/>
			<path fill="#3A3F3A" d="M183.9,15.7v-2.6c0.4,0,0.7-0.1,0.9-0.2c0.2-0.1,0.3-0.3,0.3-0.6V8.8c0-0.3-0.1-0.5-0.3-0.6
				c-0.2-0.1-0.5-0.2-0.9-0.2V5.4h7.4c0.7,0,1.3,0.1,1.7,0.2c0.5,0.1,0.8,0.3,1.1,0.6c0.3,0.3,0.5,0.5,0.6,0.9
				c0.1,0.3,0.2,0.7,0.2,1.2c0,0.8-0.2,1.4-0.6,1.9c-0.4,0.5-1,0.7-1.8,0.8V11c0.4,0,0.7,0.1,1,0.2c0.3,0.1,0.5,0.3,0.6,0.5
				c0.2,0.2,0.3,0.4,0.3,0.7c0.1,0.3,0.1,0.6,0.1,0.9v0.4c0,0.1,0,0.2,0.1,0.3s0.2,0.1,0.3,0.1c0.1,0,0.2,0,0.3-0.1s0.1-0.2,0.1-0.3
				v-1.8h0.8v1.8c0,0.3,0,0.6-0.1,0.9c-0.1,0.3-0.3,0.5-0.5,0.7s-0.5,0.4-0.9,0.5c-0.4,0.1-0.8,0.2-1.4,0.2c-0.5,0-1-0.1-1.3-0.2
				c-0.3-0.1-0.6-0.3-0.8-0.5c-0.2-0.2-0.3-0.5-0.4-0.7c-0.1-0.3-0.1-0.6-0.1-0.9v-0.5c0-0.4,0-0.7-0.1-0.9c0-0.2-0.1-0.4-0.2-0.5
				c-0.1-0.1-0.2-0.2-0.4-0.3c-0.2,0-0.3-0.1-0.6-0.1h-0.2v1c0,0.2,0.1,0.4,0.2,0.5c0.1,0.1,0.4,0.2,0.7,0.2v2.6H183.9z M189.1,10.2
				h0.6c0.4,0,0.7-0.1,0.8-0.3c0.1-0.2,0.2-0.4,0.2-0.8c0-0.4-0.1-0.7-0.2-0.8c-0.1-0.2-0.4-0.3-0.8-0.3h-0.6V10.2z"/>
			<path fill="#3A3F3A" d="M202.6,12.1h-2.2l-0.1,0.3c-0.1,0.2-0.1,0.4,0,0.5s0.3,0.2,0.5,0.2h0.4v2.6h-4.3v-2.6h0.3
				c0.3,0,0.6-0.1,0.7-0.2s0.2-0.3,0.3-0.6l1.4-3.5c0.1-0.3,0.1-0.5,0.1-0.6C199.6,8.1,199.4,8,199,8h-0.1V5.4h7.2V8h-0.1
				c-0.3,0-0.5,0.1-0.6,0.2c-0.1,0.1,0,0.3,0.1,0.6l1.4,3.5c0.1,0.1,0.1,0.2,0.1,0.3c0,0.1,0.1,0.2,0.2,0.2s0.2,0.1,0.3,0.1
				c0.1,0,0.2,0,0.4,0h0.3v2.6h-6.3v-2.6h0.4c0.3,0,0.4-0.1,0.5-0.2c0.1-0.1,0.1-0.3,0-0.5L202.6,12.1z M200.7,11h1.5l-0.7-2.1h-0.1
				L200.7,11z"/>
			<path fill="#3A3F3A" d="M220.1,5.4v4.1h-2.3c0-0.3,0-0.6,0-0.8c0-0.2-0.1-0.4-0.1-0.6s-0.1-0.2-0.3-0.3c-0.1-0.1-0.3-0.1-0.5-0.1
				h-0.4v4.6c0,0.3,0.1,0.5,0.3,0.6c0.2,0.1,0.5,0.2,0.9,0.2v2.6h-6.4v-2.6c0.4,0,0.7-0.1,0.9-0.2c0.2-0.1,0.3-0.3,0.3-0.6V7.7H212
				c-0.2,0-0.3,0-0.5,0.1c-0.1,0.1-0.2,0.2-0.3,0.3s-0.1,0.3-0.1,0.6c0,0.2,0,0.5,0,0.8h-2.3V5.4H220.1z"/>
			<path fill="#3A3F3A" d="M221.1,15.7v-2.6c0.4,0,0.7-0.1,0.9-0.2c0.2-0.1,0.3-0.3,0.3-0.6V8.8c0-0.3-0.1-0.5-0.3-0.6
				c-0.2-0.1-0.5-0.2-0.9-0.2V5.4h6.4V8c-0.4,0-0.7,0.1-0.9,0.2c-0.2,0.1-0.3,0.3-0.3,0.6v3.5c0,0.3,0.1,0.5,0.3,0.6
				c0.2,0.1,0.5,0.2,0.9,0.2v2.6H221.1z"/>
			<path fill="#3A3F3A" d="M228.7,10.6c0-0.9,0.1-1.7,0.4-2.4c0.3-0.7,0.7-1.2,1.2-1.7c0.5-0.5,1.2-0.8,1.9-1s1.6-0.3,2.5-0.3
				c0.9,0,1.7,0.1,2.5,0.3s1.4,0.6,1.9,1c0.5,0.5,1,1,1.2,1.7c0.3,0.7,0.4,1.5,0.4,2.4c0,0.9-0.1,1.7-0.4,2.4
				c-0.3,0.7-0.7,1.2-1.2,1.7c-0.5,0.5-1.2,0.8-1.9,1c-0.7,0.2-1.6,0.3-2.5,0.3c-0.9,0-1.7-0.1-2.5-0.3c-0.7-0.2-1.4-0.6-1.9-1
				c-0.5-0.5-1-1-1.2-1.7C228.9,12.3,228.7,11.5,228.7,10.6z M233.4,10.6c0,0.6,0,1,0.1,1.4c0,0.4,0.1,0.7,0.2,0.9s0.2,0.4,0.4,0.5
				c0.2,0.1,0.4,0.2,0.7,0.2c0.3,0,0.5-0.1,0.7-0.2s0.3-0.3,0.4-0.5s0.2-0.5,0.2-0.9c0-0.4,0.1-0.8,0.1-1.4c0-0.6,0-1-0.1-1.4
				c0-0.4-0.1-0.7-0.2-0.9c-0.1-0.2-0.2-0.4-0.4-0.5s-0.4-0.2-0.7-0.2c-0.3,0-0.5,0.1-0.7,0.2c-0.2,0.1-0.3,0.3-0.4,0.5
				c-0.1,0.2-0.2,0.5-0.2,0.9C233.4,9.6,233.4,10,233.4,10.6z"/>
			<path fill="#3A3F3A" d="M254.5,5.4V8c-0.4,0-0.7,0.1-0.8,0.2c-0.1,0.1-0.2,0.3-0.2,0.6v6.9h-4.2l-3.6-5.7v2.4
				c0,0.3,0.1,0.5,0.3,0.6c0.2,0.1,0.5,0.1,0.9,0.1v2.6h-4.8v-2.6c0.4,0,0.7-0.1,0.9-0.2c0.2-0.1,0.3-0.3,0.3-0.6V8.8
				c0-0.3-0.1-0.5-0.3-0.6c-0.2-0.1-0.5-0.2-0.9-0.2V5.4h5.5l3.5,5.5V8.8c0-0.3-0.1-0.5-0.2-0.6C250.7,8.1,250.4,8,250,8V5.4H254.5z
				"/>
			<path fill="#3A3F3A" d="M82.3,30.3c0.2,0,0.3,0,0.5,0c0.1,0,0.2-0.1,0.3-0.2c0.1-0.1,0.1-0.2,0.2-0.4s0-0.4,0-0.6h2.4v3.8h-9.9
				v-2.6c0.4,0,0.7-0.1,0.9-0.2c0.2-0.1,0.3-0.3,0.3-0.6V26c0-0.3-0.1-0.5-0.3-0.6c-0.2-0.1-0.5-0.2-0.9-0.2v-2.6h9.9v3.8h-2.4
				c0-0.2,0-0.4,0-0.6s-0.1-0.3-0.2-0.4c-0.1-0.1-0.2-0.1-0.3-0.2c-0.1,0-0.3-0.1-0.5-0.1h-1.3V27h2.2v1.2h-2.2v2H82.3z"/>
			<path fill="#3A3F3A" d="M99.3,22.6v2.6c-0.4,0-0.7,0.1-0.8,0.2c-0.1,0.1-0.2,0.3-0.2,0.6v6.9h-4.2l-3.6-5.7v2.4
				c0,0.3,0.1,0.5,0.3,0.6c0.2,0.1,0.5,0.1,0.9,0.1v2.6h-4.8v-2.6c0.4,0,0.7-0.1,0.9-0.2c0.2-0.1,0.3-0.3,0.3-0.6V26
				c0-0.3-0.1-0.5-0.3-0.6c-0.2-0.1-0.5-0.2-0.9-0.2v-2.6h5.5l3.5,5.5V26c0-0.3-0.1-0.5-0.2-0.6c-0.1-0.1-0.4-0.2-0.8-0.2v-2.6H99.3
				z"/>
			<path fill="#3A3F3A" d="M109.8,26.3h-2.3c0-0.2-0.1-0.5-0.2-0.7c-0.1-0.2-0.3-0.4-0.5-0.5c-0.2-0.1-0.4-0.3-0.6-0.3
				c-0.2-0.1-0.5-0.1-0.7-0.1c-0.3,0-0.5,0.1-0.7,0.2s-0.3,0.3-0.3,0.5c0,0.2,0.1,0.3,0.2,0.5s0.4,0.2,0.6,0.3
				c0.3,0.1,0.6,0.2,0.9,0.2c0.3,0.1,0.7,0.2,1,0.3c0.4,0.1,0.7,0.3,1,0.4c0.3,0.2,0.6,0.4,0.9,0.6s0.5,0.6,0.6,0.9
				c0.2,0.4,0.2,0.8,0.2,1.3c0,0.6-0.1,1-0.4,1.4c-0.2,0.4-0.6,0.7-1,1c-0.4,0.3-0.9,0.4-1.4,0.6c-0.5,0.1-1.1,0.2-1.6,0.2
				c-0.5,0-1.1-0.1-1.6-0.2c-0.5-0.1-1-0.3-1.5-0.6v0.6h-2.3v-3.8h2.3c0.1,0.5,0.4,1,0.8,1.3c0.4,0.3,0.9,0.5,1.4,0.5
				c0.3,0,0.6-0.1,0.8-0.2c0.2-0.1,0.3-0.3,0.3-0.4c0-0.3-0.1-0.5-0.4-0.6c-0.3-0.1-0.6-0.3-1-0.4c-0.4-0.1-0.9-0.2-1.3-0.4
				c-0.5-0.1-0.9-0.3-1.3-0.6c-0.4-0.3-0.8-0.6-1-1c-0.3-0.4-0.4-1-0.4-1.7c0-0.5,0.1-1,0.3-1.3c0.2-0.4,0.5-0.7,0.9-1
				c0.4-0.3,0.8-0.5,1.3-0.6c0.5-0.1,1-0.2,1.5-0.2c0.7,0,1.4,0.1,1.9,0.3c0.5,0.2,0.9,0.4,1.2,0.5v-0.6h2.3V26.3z"/>
			<path fill="#3A3F3A" d="M117.7,25.2c-0.4,0-0.7,0.1-0.9,0.2c-0.2,0.1-0.3,0.3-0.3,0.6v4.3h1.4c0.2,0,0.4,0,0.5-0.1
				c0.1,0,0.2-0.1,0.3-0.2c0.1-0.1,0.1-0.3,0.2-0.5s0-0.5,0-0.8h2.4v4.2h-10.1v-2.6c0.4,0,0.7-0.1,0.9-0.2c0.2-0.1,0.3-0.3,0.3-0.6
				V26c0-0.3-0.1-0.5-0.3-0.6c-0.2-0.1-0.5-0.2-0.9-0.2v-2.6h6.4V25.2z"/>
			<path fill="#3A3F3A" d="M128.1,29.3h-2.2l-0.1,0.3c-0.1,0.2-0.1,0.4,0,0.5s0.3,0.2,0.5,0.2h0.4v2.6h-4.3v-2.6h0.3
				c0.3,0,0.6-0.1,0.7-0.2s0.2-0.3,0.3-0.6l1.4-3.5c0.1-0.3,0.1-0.5,0.1-0.6c-0.1-0.1-0.3-0.2-0.6-0.2h-0.1v-2.6h7.2v2.6h-0.1
				c-0.3,0-0.5,0.1-0.6,0.2c-0.1,0.1,0,0.3,0.1,0.6l1.4,3.5c0.1,0.1,0.1,0.2,0.1,0.3c0,0.1,0.1,0.2,0.2,0.2s0.2,0.1,0.3,0.1
				c0.1,0,0.2,0,0.4,0h0.3v2.6h-6.3v-2.6h0.4c0.3,0,0.4-0.1,0.5-0.2c0.1-0.1,0.1-0.3,0-0.5L128.1,29.3z M126.3,28.2h1.5l-0.7-2.1
				H127L126.3,28.2z"/>
			<path fill="#3A3F3A" d="M135.5,26c-0.1-0.1-0.1-0.3-0.2-0.4c0-0.1-0.1-0.2-0.2-0.2c-0.1-0.1-0.2-0.1-0.3-0.1s-0.3,0-0.5,0v-2.6h6
				v2.6c-0.7,0-1,0.2-0.8,0.7l1.1,3.4h0.1l1.1-3.4c0.2-0.5-0.1-0.7-0.8-0.7v-2.6h4v2.6c-0.2,0-0.4,0-0.5,0c-0.1,0-0.2,0.1-0.3,0.1
				s-0.1,0.1-0.2,0.2c0,0.1-0.1,0.2-0.2,0.4l-2.7,6.9h-3.1L135.5,26z"/>
			<path fill="#3A3F3A" d="M152.4,30.3c0.2,0,0.3,0,0.5,0c0.1,0,0.2-0.1,0.3-0.2c0.1-0.1,0.1-0.2,0.2-0.4s0-0.4,0-0.6h2.4v3.8h-9.9
				v-2.6c0.4,0,0.7-0.1,0.9-0.2c0.2-0.1,0.3-0.3,0.3-0.6V26c0-0.3-0.1-0.5-0.3-0.6c-0.2-0.1-0.5-0.2-0.9-0.2v-2.6h9.9v3.8h-2.4
				c0-0.2,0-0.4,0-0.6s-0.1-0.3-0.2-0.4c-0.1-0.1-0.2-0.1-0.3-0.2c-0.1,0-0.3-0.1-0.5-0.1h-1.3V27h2.2v1.2h-2.2v2H152.4z"/>
			<path fill="#3A3F3A" d="M157,32.8v-2.6c0.4,0,0.7-0.1,0.9-0.2c0.2-0.1,0.3-0.3,0.3-0.6V26c0-0.3-0.1-0.5-0.3-0.6
				c-0.2-0.1-0.5-0.2-0.9-0.2v-2.6h7.4c0.7,0,1.3,0.1,1.9,0.3c0.6,0.2,1.2,0.5,1.7,0.9c0.5,0.4,0.9,0.9,1.2,1.6
				c0.3,0.7,0.4,1.5,0.4,2.4s-0.1,1.8-0.4,2.4c-0.3,0.7-0.7,1.2-1.2,1.6c-0.5,0.4-1.1,0.7-1.8,0.9c-0.7,0.2-1.4,0.3-2.1,0.3
				L157,32.8z M162.9,30.3c0.3,0,0.5,0,0.7-0.1s0.5-0.2,0.6-0.3c0.2-0.2,0.3-0.4,0.4-0.8s0.2-0.8,0.2-1.3c0-0.6-0.1-1-0.2-1.3
				s-0.3-0.6-0.4-0.8s-0.4-0.3-0.6-0.4c-0.2-0.1-0.5-0.1-0.8-0.1h-0.7v5.1H162.9z"/>
			<path fill="#3A3F3A" d="M180.9,29.1v0.4c0,0.2,0.1,0.4,0.2,0.6c0.1,0.1,0.3,0.2,0.7,0.2h0.7v2.6h-6.8v-2.6c0.4,0,0.7-0.1,0.9-0.2
				c0.2-0.1,0.3-0.3,0.3-0.6V26c0-0.3-0.1-0.5-0.3-0.6c-0.2-0.1-0.5-0.2-0.9-0.2v-2.6h7.5c0.7,0,1.3,0.1,1.7,0.2
				c0.5,0.2,0.8,0.4,1.1,0.7c0.3,0.3,0.5,0.6,0.6,1.1c0.1,0.4,0.2,0.9,0.2,1.4c0,0.5-0.1,0.9-0.2,1.3c-0.1,0.4-0.3,0.7-0.6,1
				c-0.3,0.3-0.7,0.5-1.1,0.6c-0.5,0.1-1,0.2-1.7,0.2H180.9z M180.9,27.4h0.8c0.4,0,0.7-0.1,0.8-0.3c0.1-0.2,0.2-0.5,0.2-0.8
				c0-0.3-0.1-0.6-0.2-0.8c-0.1-0.2-0.4-0.3-0.8-0.3h-0.8V27.4z"/>
			<path fill="#3A3F3A" d="M194.3,30.3c0.2,0,0.3,0,0.5,0c0.1,0,0.2-0.1,0.3-0.2c0.1-0.1,0.1-0.2,0.2-0.4s0-0.4,0-0.6h2.4v3.8h-9.9
				v-2.6c0.4,0,0.7-0.1,0.9-0.2c0.2-0.1,0.3-0.3,0.3-0.6V26c0-0.3-0.1-0.5-0.3-0.6c-0.2-0.1-0.5-0.2-0.9-0.2v-2.6h9.9v3.8h-2.4
				c0-0.2,0-0.4,0-0.6s-0.1-0.3-0.2-0.4c-0.1-0.1-0.2-0.1-0.3-0.2c-0.1,0-0.3-0.1-0.5-0.1H193V27h2.2v1.2H193v2H194.3z"/>
			<path fill="#3A3F3A" d="M198.9,27.7c0-0.9,0.1-1.7,0.4-2.4c0.3-0.7,0.7-1.2,1.2-1.7c0.5-0.5,1.2-0.8,1.9-1s1.6-0.3,2.5-0.3
				c0.9,0,1.7,0.1,2.5,0.3s1.4,0.6,1.9,1c0.5,0.5,1,1,1.2,1.7c0.3,0.7,0.4,1.5,0.4,2.4c0,0.9-0.1,1.7-0.4,2.4
				c-0.3,0.7-0.7,1.2-1.2,1.7c-0.5,0.5-1.2,0.8-1.9,1c-0.7,0.2-1.6,0.3-2.5,0.3c-0.9,0-1.7-0.1-2.5-0.3c-0.7-0.2-1.4-0.6-1.9-1
				c-0.5-0.5-1-1-1.2-1.7C199.1,29.4,198.9,28.6,198.9,27.7z M203.6,27.7c0,0.6,0,1,0.1,1.4c0,0.4,0.1,0.7,0.2,0.9s0.2,0.4,0.4,0.5
				c0.2,0.1,0.4,0.2,0.7,0.2c0.3,0,0.5-0.1,0.7-0.2s0.3-0.3,0.4-0.5s0.2-0.5,0.2-0.9c0-0.4,0.1-0.8,0.1-1.4c0-0.6,0-1-0.1-1.4
				c0-0.4-0.1-0.7-0.2-0.9c-0.1-0.2-0.2-0.4-0.4-0.5s-0.4-0.2-0.7-0.2c-0.3,0-0.5,0.1-0.7,0.2c-0.2,0.1-0.3,0.3-0.4,0.5
				c-0.1,0.2-0.2,0.5-0.2,0.9C203.6,26.7,203.6,27.2,203.6,27.7z"/>
			<path fill="#3A3F3A" d="M217.5,29.1v0.4c0,0.2,0.1,0.4,0.2,0.6c0.1,0.1,0.3,0.2,0.7,0.2h0.7v2.6h-6.8v-2.6c0.4,0,0.7-0.1,0.9-0.2
				c0.2-0.1,0.3-0.3,0.3-0.6V26c0-0.3-0.1-0.5-0.3-0.6c-0.2-0.1-0.5-0.2-0.9-0.2v-2.6h7.5c0.7,0,1.3,0.1,1.7,0.2
				c0.5,0.2,0.8,0.4,1.1,0.7c0.3,0.3,0.5,0.6,0.6,1.1c0.1,0.4,0.2,0.9,0.2,1.4c0,0.5-0.1,0.9-0.2,1.3c-0.1,0.4-0.3,0.7-0.6,1
				c-0.3,0.3-0.7,0.5-1.1,0.6c-0.5,0.1-1,0.2-1.7,0.2H217.5z M217.5,27.4h0.8c0.4,0,0.7-0.1,0.8-0.3c0.1-0.2,0.2-0.5,0.2-0.8
				c0-0.3-0.1-0.6-0.2-0.8c-0.1-0.2-0.4-0.3-0.8-0.3h-0.8V27.4z"/>
			<path fill="#3A3F3A" d="M230.8,25.2c-0.4,0-0.7,0.1-0.9,0.2c-0.2,0.1-0.3,0.3-0.3,0.6v4.3h1.4c0.2,0,0.4,0,0.5-0.1
				c0.1,0,0.2-0.1,0.3-0.2c0.1-0.1,0.1-0.3,0.2-0.5s0-0.5,0-0.8h2.4v4.2h-10.1v-2.6c0.4,0,0.7-0.1,0.9-0.2c0.2-0.1,0.3-0.3,0.3-0.6
				V26c0-0.3-0.1-0.5-0.3-0.6c-0.2-0.1-0.5-0.2-0.9-0.2v-2.6h6.4V25.2z"/>
			<path fill="#3A3F3A" d="M242.1,30.3c0.2,0,0.3,0,0.5,0c0.1,0,0.2-0.1,0.3-0.2c0.1-0.1,0.1-0.2,0.2-0.4s0-0.4,0-0.6h2.4v3.8h-9.9
				v-2.6c0.4,0,0.7-0.1,0.9-0.2c0.2-0.1,0.3-0.3,0.3-0.6V26c0-0.3-0.1-0.5-0.3-0.6c-0.2-0.1-0.5-0.2-0.9-0.2v-2.6h9.9v3.8h-2.4
				c0-0.2,0-0.4,0-0.6s-0.1-0.3-0.2-0.4c-0.1-0.1-0.2-0.1-0.3-0.2c-0.1,0-0.3-0.1-0.5-0.1h-1.3V27h2.2v1.2h-2.2v2H242.1z"/>
		</g>
	</g>
	<g>
		<g>
			<path fill="#86412B" d="M258.8,12.4c0-0.4,0.1-0.8,0.2-1.1c0.1-0.3,0.3-0.6,0.5-0.8c0.2-0.2,0.5-0.4,0.8-0.5
				c0.3-0.1,0.6-0.2,1-0.2c0.4,0,0.8,0.1,1.1,0.2c0.3,0.1,0.6,0.3,0.8,0.5c0.2,0.2,0.3,0.5,0.4,0.8c0.1,0.3,0.1,0.7,0.1,1.1
				c0,0.9-0.2,1.5-0.7,2c-0.4,0.5-1,0.7-1.8,0.7c-0.4,0-0.8-0.1-1.1-0.2c-0.3-0.1-0.5-0.3-0.7-0.5c-0.2-0.2-0.3-0.5-0.4-0.9
				S258.8,12.8,258.8,12.4z M259.8,12.4c0,0.3,0,0.6,0.1,0.9s0.1,0.5,0.3,0.7s0.3,0.4,0.5,0.5c0.2,0.1,0.5,0.2,0.7,0.2
				c0.4,0,0.7-0.2,0.9-0.5c0.2-0.4,0.4-0.9,0.4-1.7c0-0.3,0-0.6-0.1-0.9c-0.1-0.3-0.1-0.5-0.3-0.7c-0.1-0.2-0.3-0.4-0.5-0.5
				c-0.2-0.1-0.4-0.2-0.7-0.2c-0.4,0-0.7,0.2-1,0.5C259.9,11.1,259.8,11.6,259.8,12.4z"/>
			<path fill="#86412B" d="M267.2,7.2c0.1,0,0.1,0,0.2,0c0.1,0,0.2,0,0.3,0c0.1,0,0.2,0,0.3,0s0.2,0,0.2,0.1c0,0.2,0,0.4-0.1,0.6
				c0,0.2-0.1,0.4-0.1,0.5h-0.3l-0.5-0.9c-0.2,0-0.4,0-0.5,0.1s-0.3,0.1-0.3,0.2c-0.1,0.1-0.2,0.3-0.2,0.5c0,0.2-0.1,0.5-0.1,0.9
				v0.5h1.2v0.5h-1.2v4.1c0.4,0,0.7,0.1,1,0.2v0.3h-2.6v-0.3c0.2-0.1,0.4-0.2,0.7-0.2v-4.1h-0.8v-0.3c0.2-0.2,0.5-0.3,0.8-0.3V9.4
				c0-0.4,0.1-0.8,0.2-1c0.1-0.3,0.2-0.5,0.4-0.7s0.4-0.3,0.7-0.3C266.6,7.3,266.9,7.2,267.2,7.2z"/>
		</g>
	</g>
</g>
</svg>
